<?xml version="1.0" standalone="no"?>
<!DOCTYPE svg PUBLIC "-//W3C//DTD SVG 20010904//EN"
 "http://www.w3.org/TR/2001/REC-SVG-20010904/DTD/svg10.dtd">
<svg version="1.0" xmlns="http://www.w3.org/2000/svg"
 width="1020.000000pt" height="1020.000000pt" viewBox="0 0 1020.000000 1020.000000"
 preserveAspectRatio="xMidYMid meet">

<defs>
  <!-- Gradient for "greater than" symbol -->
  <linearGradient id="grad-greater" x1="0%" y1="0%" x2="100%" y2="100%">
    <stop offset="0%" style="stop-color:#240B36;stop-opacity:1" />
    <stop offset="100%" style="stop-color:#C31432;stop-opacity:1" />
  </linearGradient>
  
  <!-- Gradient for "less than" symbol -->
  <linearGradient id="grad-less" x1="0%" y1="0%" x2="100%" y2="100%">
    <stop offset="0%" style="stop-color:#DD1818;stop-opacity:1" />
    <stop offset="100%" style="stop-color:#333333;stop-opacity:1" />
  </linearGradient>
</defs>

<g transform="translate(0.000000,1020.000000) scale(0.100000,-0.100000)" stroke="none">
  <!-- "Greater than" symbol -->
  <path d="M4440 9087 l0 -483 478 -470 c262 -258 781 -768 1153 -1133 l676
  -664 -1153 -1119 -1154 -1119 0 -486 0 -486 50 44 c27 24 684 656 1459 1404
  l1410 1360 0 405 1 405 -717 695 c-394 382 -1049 1018 -1455 1413 -406 394
  -741 717 -743 717 -3 0 -5 -217 -5 -483z" fill="url(#grad-greater)" />
  
  <!-- "Less than" symbol -->
  <path d="M5652 6963 c-57 -54 -712 -685 -1457 -1403 l-1354 -1305 0 -405 0
  -405 1420 -1380 c781 -759 1438 -1395 1460 -1414 l39 -34 0 485 0 485 -1156
  1134 -1155 1134 34 30 c18 17 538 520 1155 1118 l1122 1089 0 484 c0 266 -1
  484 -3 484 -2 0 -49 -44 -105 -97z" fill="url(#grad-less)" />
</g>
</svg>
